<svg width="84" height="24" viewBox="0 0 84 24" fill="none" xmlns="http://www.w3.org/2000/svg">
<path d="M0.944957 23.9091V5.90909H4.5245V8.10795H4.68643C4.84553 7.75568 5.07564 7.39773 5.37678 7.03409C5.68359 6.66477 6.08132 6.35795 6.56996 6.11364C7.06428 5.86364 7.67791 5.73864 8.41087 5.73864C9.36541 5.73864 10.2461 5.98864 11.0529 6.48864C11.8597 6.98295 12.5046 7.73011 12.9876 8.73011C13.4705 9.72443 13.712 10.9716 13.712 12.4716C13.712 13.9318 13.4762 15.1648 13.0046 16.1705C12.5387 17.1705 11.9023 17.929 11.0955 18.446C10.2944 18.9574 9.39666 19.2131 8.40234 19.2131C7.6978 19.2131 7.09837 19.0966 6.60405 18.8636C6.11541 18.6307 5.71484 18.3381 5.40234 17.9858C5.08984 17.6278 4.85121 17.267 4.68643 16.9034H4.57564V23.9091H0.944957ZM4.49893 12.4545C4.49893 13.233 4.60689 13.9119 4.8228 14.4915C5.03871 15.071 5.35121 15.5227 5.7603 15.8466C6.16939 16.1648 6.66655 16.3239 7.25178 16.3239C7.84268 16.3239 8.34268 16.1619 8.75178 15.8381C9.16087 15.5085 9.47053 15.054 9.68075 14.4744C9.89666 13.8892 10.0046 13.2159 10.0046 12.4545C10.0046 11.6989 9.8995 11.0341 9.68928 10.4602C9.47905 9.88636 9.16939 9.4375 8.7603 9.11364C8.35121 8.78977 7.84837 8.62784 7.25178 8.62784C6.66087 8.62784 6.16087 8.78409 5.75178 9.09659C5.34837 9.40909 5.03871 9.85227 4.8228 10.4261C4.60689 11 4.49893 11.6761 4.49893 12.4545ZM19.8654 19.2472C19.0302 19.2472 18.2859 19.1023 17.6325 18.8125C16.979 18.517 16.462 18.0824 16.0813 17.5085C15.7063 16.929 15.5188 16.2074 15.5188 15.3438C15.5188 14.6165 15.6523 14.0057 15.9194 13.5114C16.1864 13.017 16.5501 12.6193 17.0103 12.3182C17.4705 12.017 17.9933 11.7898 18.5785 11.6364C19.1694 11.483 19.7887 11.375 20.4364 11.3125C21.1978 11.233 21.8114 11.1591 22.2773 11.0909C22.7433 11.017 23.0813 10.9091 23.2915 10.767C23.5018 10.625 23.6069 10.4148 23.6069 10.1364V10.0852C23.6069 9.54545 23.4364 9.12784 23.0955 8.83239C22.7603 8.53693 22.283 8.3892 21.6637 8.3892C21.0103 8.3892 20.4904 8.53409 20.104 8.82386C19.7177 9.10795 19.462 9.46591 19.337 9.89773L15.979 9.625C16.1495 8.82955 16.4847 8.14205 16.9847 7.5625C17.4847 6.97727 18.1296 6.52841 18.9194 6.21591C19.7148 5.89773 20.6353 5.73864 21.6808 5.73864C22.408 5.73864 23.104 5.82386 23.7688 5.99432C24.4393 6.16477 25.033 6.42898 25.5501 6.78693C26.0728 7.14489 26.4847 7.60511 26.7859 8.16761C27.087 8.72443 27.2376 9.39205 27.2376 10.1705V19H23.7944V17.1847H23.6921C23.4819 17.5938 23.2006 17.9545 22.8484 18.267C22.4961 18.5739 22.0728 18.8153 21.5785 18.9915C21.0842 19.1619 20.5131 19.2472 19.8654 19.2472ZM20.9052 16.7415C21.4393 16.7415 21.9109 16.6364 22.32 16.4261C22.729 16.2102 23.0501 15.9205 23.283 15.5568C23.516 15.1932 23.6325 14.7812 23.6325 14.321V12.9318C23.5188 13.0057 23.3626 13.0739 23.1637 13.1364C22.9705 13.1932 22.7518 13.2472 22.5075 13.2983C22.2631 13.3437 22.0188 13.3864 21.7745 13.4261C21.5302 13.4602 21.3086 13.4915 21.1097 13.5199C20.6836 13.5824 20.3114 13.6818 19.9933 13.8182C19.6751 13.9545 19.4279 14.1392 19.2518 14.3722C19.0756 14.5994 18.9876 14.8835 18.9876 15.2244C18.9876 15.7188 19.1665 16.0966 19.5245 16.358C19.8881 16.6136 20.3484 16.7415 20.9052 16.7415ZM33.685 1.54545V19H30.0543V1.54545H33.685Z" fill="#090A0A"/>
<path d="M36.5934 19V5.90909H40.2241V19H36.5934ZM38.4173 4.22159C37.8775 4.22159 37.4144 4.04261 37.0281 3.68466C36.6474 3.32102 36.457 2.88636 36.457 2.38068C36.457 1.88068 36.6474 1.4517 37.0281 1.09375C37.4144 0.730113 37.8775 0.548295 38.4173 0.548295C38.957 0.548295 39.4173 0.730113 39.7979 1.09375C40.1843 1.4517 40.3775 1.88068 40.3775 2.38068C40.3775 2.88636 40.1843 3.32102 39.7979 3.68466C39.4173 4.04261 38.957 4.22159 38.4173 4.22159ZM46.7631 11.4318V19H43.1325V5.90909H46.5927V8.21875H46.7461C47.0359 7.45739 47.5217 6.85511 48.2035 6.41193C48.8853 5.96307 49.712 5.73864 50.6836 5.73864C51.5927 5.73864 52.3853 5.9375 53.0614 6.33523C53.7376 6.73295 54.2631 7.30114 54.6381 8.03977C55.0131 8.77273 55.2006 9.64773 55.2006 10.6648V19H51.57V11.3125C51.5756 10.5114 51.3711 9.88636 50.9563 9.4375C50.5415 8.98295 49.9705 8.75568 49.2433 8.75568C48.7546 8.75568 48.3228 8.8608 47.9478 9.07102C47.5785 9.28125 47.2887 9.58807 47.0785 9.99148C46.8739 10.3892 46.7688 10.8693 46.7631 11.4318ZM61.3519 15.233L61.3604 10.8778H61.8888L66.082 5.90909H70.2496L64.6161 12.4886H63.7553L61.3519 15.233ZM58.0621 19V1.54545H61.6928V19H58.0621ZM66.244 19L62.3917 13.2983L64.8121 10.733L70.4968 19H66.244ZM75.7638 19.2472C74.9286 19.2472 74.1843 19.1023 73.5309 18.8125C72.8775 18.517 72.3604 18.0824 71.9798 17.5085C71.6048 16.929 71.4173 16.2074 71.4173 15.3438C71.4173 14.6165 71.5508 14.0057 71.8178 13.5114C72.0849 13.017 72.4485 12.6193 72.9087 12.3182C73.369 12.017 73.8917 11.7898 74.4769 11.6364C75.0678 11.483 75.6871 11.375 76.3349 11.3125C77.0962 11.233 77.7099 11.1591 78.1758 11.0909C78.6417 11.017 78.9798 10.9091 79.19 10.767C79.4002 10.625 79.5053 10.4148 79.5053 10.1364V10.0852C79.5053 9.54545 79.3349 9.12784 78.994 8.83239C78.6587 8.53693 78.1815 8.3892 77.5621 8.3892C76.9087 8.3892 76.3888 8.53409 76.0025 8.82386C75.6161 9.10795 75.3604 9.46591 75.2354 9.89773L71.8775 9.625C72.0479 8.82955 72.3832 8.14205 72.8832 7.5625C73.3832 6.97727 74.0281 6.52841 74.8178 6.21591C75.6133 5.89773 76.5337 5.73864 77.5792 5.73864C78.3065 5.73864 79.0025 5.82386 79.6673 5.99432C80.3377 6.16477 80.9315 6.42898 81.4485 6.78693C81.9712 7.14489 82.3832 7.60511 82.6843 8.16761C82.9854 8.72443 83.136 9.39205 83.136 10.1705V19H79.6928V17.1847H79.5906C79.3803 17.5938 79.0991 17.9545 78.7468 18.267C78.3945 18.5739 77.9712 18.8153 77.4769 18.9915C76.9826 19.1619 76.4116 19.2472 75.7638 19.2472ZM76.8036 16.7415C77.3377 16.7415 77.8093 16.6364 78.2184 16.4261C78.6275 16.2102 78.9485 15.9205 79.1815 15.5568C79.4144 15.1932 79.5309 14.7812 79.5309 14.321V12.9318C79.4173 13.0057 79.261 13.0739 79.0621 13.1364C78.869 13.1932 78.6502 13.2472 78.4059 13.2983C78.1616 13.3437 77.9173 13.3864 77.6729 13.4261C77.4286 13.4602 77.207 13.4915 77.0082 13.5199C76.582 13.5824 76.2099 13.6818 75.8917 13.8182C75.5735 13.9545 75.3263 14.1392 75.1502 14.3722C74.9741 14.5994 74.886 14.8835 74.886 15.2244C74.886 15.7188 75.065 16.0966 75.4229 16.358C75.7866 16.6136 76.2468 16.7415 76.8036 16.7415Z" fill="#6B4EFF"/>
</svg>
