<svg width="240" height="240" viewBox="0 0 240 240" fill="none" xmlns="http://www.w3.org/2000/svg">
<path d="M94.0193 45C105.566 25 134.434 25 145.981 45L197.942 135C209.489 155 195.056 180 171.962 180H68.0385C44.9444 180 30.5107 155 42.0577 135L94.0193 45Z" fill="url(#paint0_linear_16004_6342)"/>
<mask id="mask0_16004_6342" style="mask-type:alpha" maskUnits="userSpaceOnUse" x="37" y="30" width="166" height="150">
<path d="M94.0193 45C105.566 25 134.434 25 145.981 45L197.942 135C209.489 155 195.056 180 171.962 180H68.0385C44.9444 180 30.5107 155 42.0577 135L94.0193 45Z" fill="url(#paint1_linear_16004_6342)"/>
</mask>
<g mask="url(#mask0_16004_6342)">
<path d="M93.3 79.5C86.58 58.38 121.9 20.5 140.4 4.2H0L2.7 174C15 176.6 44.88 180.24 66 174C87.12 167.76 97.8 162.2 100.5 160.2C116 152.8 143.58 134.16 129.9 118.8C112.8 99.6 101.7 105.9 93.3 79.5Z" fill="white" fill-opacity="0.3"/>
<path d="M111 78C104.28 56.88 139.6 19 158.1 2.7H17.7L20.4 172.5C32.7 175.1 62.58 178.74 83.7 172.5C104.82 166.26 115.5 160.7 118.2 158.7C133.7 151.3 161.28 132.66 147.6 117.3C130.5 98.1 119.4 104.4 111 78Z" fill="#8D78FF" fill-opacity="0.3"/>
<path d="M111 78C104.28 56.88 139.6 19 158.1 2.7H17.7L20.4 172.5C32.7 175.1 62.58 178.74 83.7 172.5C104.82 166.26 115.5 160.7 118.2 158.7C133.7 151.3 161.28 132.66 147.6 117.3C130.5 98.1 119.4 104.4 111 78Z" fill="#8D78FF" fill-opacity="0.3"/>
</g>
<path fill-rule="evenodd" clip-rule="evenodd" d="M146.039 44.4022C134.493 24.3993 105.621 24.3993 94.0749 44.4023L41.8627 134.854C37.6388 142.172 36.8925 150.158 38.7755 157.345C39.4423 154.823 40.461 152.321 41.8627 149.893L94.0749 59.4407C105.621 39.4377 134.493 39.4377 146.039 59.4407L198.251 149.893C199.653 152.321 200.672 154.823 201.338 157.345C203.221 150.158 202.475 142.172 198.251 134.854L146.039 44.4022Z" fill="white" fill-opacity="0.2"/>
<rect x="193.268" y="141.496" width="5.4" height="17.1651" rx="2.7" transform="rotate(150.419 193.268 141.496)" fill="white" fill-opacity="0.6"/>
<rect x="95.1728" y="57.6" width="5.4" height="22.1744" rx="2.7" transform="rotate(30.2558 95.1728 57.6)" fill="white" fill-opacity="0.6"/>
<rect x="82.6662" y="79.2" width="5.4" height="7.08903" rx="2.7" transform="rotate(29.2717 82.6662 79.2)" fill="white" fill-opacity="0.6"/>
<circle cx="95.7" cy="98.1" r="9.9" fill="white"/>
<circle cx="144.3" cy="98.1" r="9.9" fill="white"/>
<circle cx="95.7" cy="98.1" r="5.7" fill="black"/>
<circle cx="99" cy="96.6" r="1.8" fill="white"/>
<circle cx="144.3" cy="98.1" r="5.7" fill="black"/>
<circle cx="147.6" cy="96.6" r="1.8" fill="white"/>
<path d="M120.3 130.5C126.099 130.5 130.8 125.799 130.8 120H109.8C109.8 125.799 114.501 130.5 120.3 130.5Z" fill="#8D77F9"/>
<path d="M120.3 131.7C126.311 131.7 131.262 127.168 131.925 121.333C132.091 119.872 130.884 118.8 129.6 118.8H111C109.716 118.8 108.509 119.872 108.675 121.333C109.338 127.168 114.289 131.7 120.3 131.7Z" stroke="#725ED6" stroke-opacity="0.75" stroke-width="2.4"/>
<path d="M120.3 124.2C122.785 124.2 124.8 122.32 124.8 120H115.8C115.8 122.32 117.815 124.2 120.3 124.2Z" fill="white"/>
<defs>
<linearGradient id="paint0_linear_16004_6342" x1="148.5" y1="19.5" x2="30.3" y2="249" gradientUnits="userSpaceOnUse">
<stop stop-color="#6B4EFF"/>
<stop offset="1" stop-color="#D9D9D9" stop-opacity="0"/>
</linearGradient>
<linearGradient id="paint1_linear_16004_6342" x1="148.5" y1="19.5" x2="30.3" y2="249" gradientUnits="userSpaceOnUse">
<stop stop-color="#6B4EFF"/>
<stop offset="1" stop-color="#D9D9D9" stop-opacity="0"/>
</linearGradient>
</defs>
</svg>
